<svg xmlns="http://www.w3.org/2000/svg" version="1.1" xmlns:xlink="http://www.w3.org/1999/xlink" xmlns:svgjs="http://svgjs.dev/svgjs" width="1440" height="560" preserveAspectRatio="none" viewBox="0 0 1440 560"><g mask="url(&quot;#SvgjsMask1011&quot;)" fill="none"><path d="M1536 560L0 560 L0 329.85Q51.38 309.24, 72 360.62Q109.79 278.41, 192 316.2Q281.47 285.67, 312 375.15Q313.1 304.25, 384 305.35Q432.55 233.9, 504 282.46Q585.72 244.18, 624 325.9Q686.04 315.94, 696 377.98Q715.88 325.86, 768 345.73Q815.82 273.55, 888 321.37Q946.8 308.17, 960 366.97Q985.07 272.04, 1080 297.1Q1125.72 270.83, 1152 316.55Q1200.63 293.19, 1224 341.82Q1258.49 256.31, 1344 290.8Q1374.79 249.59, 1416 280.37Q1497.11 241.48, 1536 322.59z" fill="rgba(4, 157, 217, 1)"></path><path d="M1536 560L0 560 L0 435.36Q38.03 401.39, 72 439.43Q81.62 377.05, 144 386.66Q211.09 333.75, 264 400.84Q306.74 371.58, 336 414.32Q346.96 353.28, 408 364.24Q461.95 298.19, 528 352.15Q597.43 349.58, 600 419.01Q637.14 336.15, 720 373.3Q769.69 303, 840 352.69Q923.98 316.67, 960 400.65Q983.56 352.2, 1032 375.76Q1088.15 359.91, 1104 416.06Q1175.37 367.43, 1224 438.8Q1255.16 349.96, 1344 381.12Q1369.38 334.5, 1416 359.88Q1499.63 323.51, 1536 407.15z" fill="rgba(5, 199, 242, 1)"></path><path d="M1512 560L0 560 L0 472.01Q56.47 408.48, 120 464.95Q167.31 392.26, 240 439.58Q281.92 409.5, 312 451.42Q367.04 434.46, 384 489.5Q430.71 416.21, 504 462.91Q526.49 413.4, 576 435.89Q630.67 418.56, 648 473.23Q721.54 426.77, 768 500.32Q820.92 433.24, 888 486.16Q906.63 432.8, 960 451.43Q1043.11 414.53, 1080 497.64Q1080.13 425.77, 1152 425.9Q1255.66 409.56, 1272 513.23Q1315.49 436.72, 1392 480.21Q1432.16 400.38, 1512 440.54z" fill="rgba(255, 255, 255, 1)"></path><path d="M1560 560L0 560 L0 509.09Q32.42 469.5, 72 501.92Q172.49 482.41, 192 582.91Q228.79 499.7, 312 536.49Q358.07 510.56, 384 556.62Q390.18 490.8, 456 496.97Q498.2 467.18, 528 509.38Q592.69 502.07, 600 566.75Q651.48 498.23, 720 549.71Q770.47 528.18, 792 578.66Q794.22 508.88, 864 511.1Q929.9 457, 984 522.9Q1045.8 512.69, 1056 574.49Q1105.8 504.29, 1176 554.09Q1181.46 487.55, 1248 493.01Q1290.07 463.07, 1320 505.14Q1392.95 458.1, 1440 531.05Q1514.53 485.58, 1560 560.1z" fill="rgba(4, 41, 89, 1)"></path></g><defs><mask id="SvgjsMask1011"><rect width="1440" height="560" fill="#ffffff"></rect></mask></defs></svg>