<svg xmlns="http://www.w3.org/2000/svg" version="1.1"
    xmlns:xlink="http://www.w3.org/1999/xlink"
    xmlns:svgjs="http://svgjs.dev/svgjs" width="1440" height="560" preserveAspectRatio="none" viewBox="0 0 1440 560">
    <g mask="url(&quot;#SvgjsMask1996&quot;)" fill="none">
        <rect width="1440" height="560" x="0" y="0" fill="rgba(4, 41, 89, 1)"></rect>
        <path d="M-94.53 376.29L-94.53 376.29" stroke="rgba(4, 41, 89, 1)" stroke-width="1.5"></path>
        <path d="M-94.53 376.29L62.64 360.47" stroke="rgba(4, 41, 89, 1)" stroke-width="1.5"></path>
        <path d="M-94.53 376.29L-80.04 551.6" stroke="rgba(4, 41, 89, 1)" stroke-width="1.5"></path>
        <path d="M-94.53 376.29L109.16 549.78" stroke="rgba(4, 41, 89, 1)" stroke-width="1.5"></path>
        <path d="M-80.04 551.6L-80.04 551.6" stroke="rgba(4, 41, 89, 1)" stroke-width="1.5"></path>
        <path d="M-80.04 551.6L-71.01 693.26" stroke="rgba(4, 41, 89, 1)" stroke-width="1.5"></path>
        <path d="M-80.04 551.6L109.16 549.78" stroke="rgba(4, 41, 89, 1)" stroke-width="1.5"></path>
        <path d="M-80.04 551.6L62.64 360.47" stroke="rgba(4, 41, 89, 1)" stroke-width="1.5"></path>
        <path d="M-80.04 551.6L238.81 523.76" stroke="rgba(4, 41, 89, 1)" stroke-width="1.5"></path>
        <path d="M-71.01 693.26L-71.01 693.26" stroke="rgba(4, 41, 89, 1)" stroke-width="1.5"></path>
        <path d="M-71.01 693.26L109.16 549.78" stroke="rgba(4, 41, 89, 1)" stroke-width="1.5"></path>
        <path d="M62.64 360.47L62.64 360.47" stroke="rgba(4, 41, 89, 1)" stroke-width="1.5"></path>
        <path d="M62.64 360.47L200.65 373.21" stroke="rgba(4, 41, 89, 1)" stroke-width="1.5"></path>
        <path d="M62.64 360.47L109.16 549.78" stroke="rgba(4, 41, 89, 1)" stroke-width="1.5"></path>
        <path d="M62.64 360.47L238.81 523.76" stroke="rgba(4, 41, 89, 1)" stroke-width="1.5"></path>
        <path d="M109.16 549.78L109.16 549.78" stroke="rgba(4, 41, 89, 1)" stroke-width="1.5"></path>
        <path d="M109.16 549.78L238.81 523.76" stroke="rgba(4, 41, 89, 1)" stroke-width="1.5"></path>
        <path d="M109.16 549.78L226.93 651.9" stroke="rgba(4, 41, 89, 1)" stroke-width="1.5"></path>
        <path d="M109.16 549.78L200.65 373.21" stroke="rgba(4, 41, 89, 1)" stroke-width="1.5"></path>
        <path d="M200.65 373.21L200.65 373.21" stroke="rgba(4, 41, 89, 1)" stroke-width="1.5"></path>
        <path d="M200.65 373.21L238.81 523.76" stroke="rgba(4, 41, 89, 1)" stroke-width="1.5"></path>
        <path d="M200.65 373.21L377.92 352.15" stroke="rgba(4, 41, 89, 1)" stroke-width="1.5"></path>
        <path d="M200.65 373.21L360.88 562.45" stroke="rgba(4, 41, 89, 1)" stroke-width="1.5"></path>
        <path d="M238.81 523.76L238.81 523.76" stroke="rgba(4, 41, 89, 1)" stroke-width="1.5"></path>
        <path d="M238.81 523.76L360.88 562.45" stroke="rgba(4, 41, 89, 1)" stroke-width="1.5"></path>
        <path d="M238.81 523.76L226.93 651.9" stroke="rgba(4, 41, 89, 1)" stroke-width="1.5"></path>
        <path d="M226.93 651.9L226.93 651.9" stroke="rgba(4, 41, 89, 1)" stroke-width="1.5"></path>
        <path d="M226.93 651.9L356.78 653.76" stroke="rgba(4, 41, 89, 1)" stroke-width="1.5"></path>
        <path d="M226.93 651.9L360.88 562.45" stroke="rgba(4, 41, 89, 1)" stroke-width="1.5"></path>
        <path d="M226.93 651.9L492.74 709.53" stroke="rgba(4, 41, 89, 1)" stroke-width="1.5"></path>
        <path d="M377.92 352.15L377.92 352.15" stroke="rgba(4, 41, 89, 1)" stroke-width="1.5"></path>
        <path d="M377.92 352.15L492.03 348" stroke="rgba(4, 41, 89, 1)" stroke-width="1.5"></path>
        <path d="M377.92 352.15L360.88 562.45" stroke="rgba(4, 41, 89, 1)" stroke-width="1.5"></path>
        <path d="M377.92 352.15L238.81 523.76" stroke="rgba(4, 41, 89, 1)" stroke-width="1.5"></path>
        <path d="M360.88 562.45L360.88 562.45" stroke="rgba(4, 41, 89, 1)" stroke-width="1.5"></path>
        <path d="M360.88 562.45L356.78 653.76" stroke="rgba(4, 41, 89, 1)" stroke-width="1.5"></path>
        <path d="M356.78 653.76L356.78 653.76" stroke="rgba(4, 41, 89, 1)" stroke-width="1.5"></path>
        <path d="M492.03 348L492.03 348" stroke="rgba(4, 41, 89, 1)" stroke-width="1.5"></path>
        <path d="M492.03 348L509.3 550.71" stroke="rgba(4, 41, 89, 1)" stroke-width="1.5"></path>
        <path d="M492.03 348L703.05 366.4" stroke="rgba(4, 41, 89, 1)" stroke-width="1.5"></path>
        <path d="M509.3 550.71L509.3 550.71" stroke="rgba(4, 41, 89, 1)" stroke-width="1.5"></path>
        <path d="M509.3 550.71L653.63 533.58" stroke="rgba(4, 41, 89, 1)" stroke-width="1.5"></path>
        <path d="M509.3 550.71L360.88 562.45" stroke="rgba(4, 41, 89, 1)" stroke-width="1.5"></path>
        <path d="M509.3 550.71L492.74 709.53" stroke="rgba(4, 41, 89, 1)" stroke-width="1.5"></path>
        <path d="M492.74 709.53L492.74 709.53" stroke="rgba(4, 41, 89, 1)" stroke-width="1.5"></path>
        <path d="M492.74 709.53L356.78 653.76" stroke="rgba(4, 41, 89, 1)" stroke-width="1.5"></path>
        <path d="M492.74 709.53L360.88 562.45" stroke="rgba(4, 41, 89, 1)" stroke-width="1.5"></path>
        <path d="M492.74 709.53L712.4 702.84" stroke="rgba(4, 41, 89, 1)" stroke-width="1.5"></path>
        <path d="M492.74 709.53L653.63 533.58" stroke="rgba(4, 41, 89, 1)" stroke-width="1.5"></path>
        <path d="M681.81 212.98L681.81 212.98" stroke="rgba(4, 41, 89, 1)" stroke-width="1.5"></path>
        <path d="M681.81 212.98L796.39 189.7" stroke="rgba(4, 41, 89, 1)" stroke-width="1.5"></path>
        <path d="M681.81 212.98L703.05 366.4" stroke="rgba(4, 41, 89, 1)" stroke-width="1.5"></path>
        <path d="M681.81 212.98L821.84 341.86" stroke="rgba(4, 41, 89, 1)" stroke-width="1.5"></path>
        <path d="M703.05 366.4L703.05 366.4" stroke="rgba(4, 41, 89, 1)" stroke-width="1.5"></path>
        <path d="M703.05 366.4L821.84 341.86" stroke="rgba(4, 41, 89, 1)" stroke-width="1.5"></path>
        <path d="M703.05 366.4L653.63 533.58" stroke="rgba(4, 41, 89, 1)" stroke-width="1.5"></path>
        <path d="M703.05 366.4L796.39 189.7" stroke="rgba(4, 41, 89, 1)" stroke-width="1.5"></path>
        <path d="M703.05 366.4L509.3 550.71" stroke="rgba(4, 41, 89, 1)" stroke-width="1.5"></path>
        <path d="M653.63 533.58L653.63 533.58" stroke="rgba(4, 41, 89, 1)" stroke-width="1.5"></path>
        <path d="M653.63 533.58L712.4 702.84" stroke="rgba(4, 41, 89, 1)" stroke-width="1.5"></path>
        <path d="M653.63 533.58L811.2 702.17" stroke="rgba(4, 41, 89, 1)" stroke-width="1.5"></path>
        <path d="M653.63 533.58L492.03 348" stroke="rgba(4, 41, 89, 1)" stroke-width="1.5"></path>
        <path d="M712.4 702.84L712.4 702.84" stroke="rgba(4, 41, 89, 1)" stroke-width="1.5"></path>
        <path d="M712.4 702.84L811.2 702.17" stroke="rgba(4, 41, 89, 1)" stroke-width="1.5"></path>
        <path d="M796.39 189.7L796.39 189.7" stroke="rgba(4, 41, 89, 1)" stroke-width="1.5"></path>
        <path d="M796.39 189.7L821.84 341.86" stroke="rgba(4, 41, 89, 1)" stroke-width="1.5"></path>
        <path d="M821.84 341.86L821.84 341.86" stroke="rgba(4, 41, 89, 1)" stroke-width="1.5"></path>
        <path d="M821.84 341.86L999.58 352.27" stroke="rgba(4, 41, 89, 1)" stroke-width="1.5"></path>
        <path d="M821.84 341.86L964.95 189.41" stroke="rgba(4, 41, 89, 1)" stroke-width="1.5"></path>
        <path d="M821.84 341.86L653.63 533.58" stroke="rgba(4, 41, 89, 1)" stroke-width="1.5"></path>
        <path d="M811.2 702.17L811.2 702.17" stroke="rgba(4, 41, 89, 1)" stroke-width="1.5"></path>
        <path d="M811.2 702.17L996.6 550.58" stroke="rgba(4, 41, 89, 1)" stroke-width="1.5"></path>
        <path d="M811.2 702.17L492.74 709.53" stroke="rgba(4, 41, 89, 1)" stroke-width="1.5"></path>
        <path d="M968 -38.98L968 -38.98" stroke="rgba(4, 41, 89, 1)" stroke-width="1.5"></path>
        <path d="M968 -38.98L1005.12 91.62" stroke="rgba(4, 41, 89, 1)" stroke-width="1.5"></path>
        <path d="M968 -38.98L1120.41 -71.18" stroke="rgba(4, 41, 89, 1)" stroke-width="1.5"></path>
        <path d="M968 -38.98L1158.03 44.35" stroke="rgba(4, 41, 89, 1)" stroke-width="1.5"></path>
        <path d="M968 -38.98L964.95 189.41" stroke="rgba(4, 41, 89, 1)" stroke-width="1.5"></path>
        <path d="M968 -38.98L796.39 189.7" stroke="rgba(4, 41, 89, 1)" stroke-width="1.5"></path>
        <path d="M1005.12 91.62L1005.12 91.62" stroke="rgba(4, 41, 89, 1)" stroke-width="1.5"></path>
        <path d="M1005.12 91.62L964.95 189.41" stroke="rgba(4, 41, 89, 1)" stroke-width="1.5"></path>
        <path d="M1005.12 91.62L1158.03 44.35" stroke="rgba(4, 41, 89, 1)" stroke-width="1.5"></path>
        <path d="M964.95 189.41L964.95 189.41" stroke="rgba(4, 41, 89, 1)" stroke-width="1.5"></path>
        <path d="M964.95 189.41L999.58 352.27" stroke="rgba(4, 41, 89, 1)" stroke-width="1.5"></path>
        <path d="M964.95 189.41L796.39 189.7" stroke="rgba(4, 41, 89, 1)" stroke-width="1.5"></path>
        <path d="M999.58 352.27L999.58 352.27" stroke="rgba(4, 41, 89, 1)" stroke-width="1.5"></path>
        <path d="M999.58 352.27L1112.76 392.31" stroke="rgba(4, 41, 89, 1)" stroke-width="1.5"></path>
        <path d="M999.58 352.27L996.6 550.58" stroke="rgba(4, 41, 89, 1)" stroke-width="1.5"></path>
        <path d="M996.6 550.58L996.6 550.58" stroke="rgba(4, 41, 89, 1)" stroke-width="1.5"></path>
        <path d="M996.6 550.58L1150.59 542.75" stroke="rgba(4, 41, 89, 1)" stroke-width="1.5"></path>
        <path d="M996.6 550.58L1112.76 392.31" stroke="rgba(4, 41, 89, 1)" stroke-width="1.5"></path>
        <path d="M996.6 550.58L1135.41 703.65" stroke="rgba(4, 41, 89, 1)" stroke-width="1.5"></path>
        <path d="M1120.41 -71.18L1120.41 -71.18" stroke="rgba(4, 41, 89, 1)" stroke-width="1.5"></path>
        <path d="M1120.41 -71.18L1158.03 44.35" stroke="rgba(4, 41, 89, 1)" stroke-width="1.5"></path>
        <path d="M1120.41 -71.18L1289.39 -101.09" stroke="rgba(4, 41, 89, 1)" stroke-width="1.5"></path>
        <path d="M1120.41 -71.18L1005.12 91.62" stroke="rgba(4, 41, 89, 1)" stroke-width="1.5"></path>
        <path d="M1120.41 -71.18L1291.25 66.12" stroke="rgba(4, 41, 89, 1)" stroke-width="1.5"></path>
        <path d="M1120.41 -71.18L1156.68 195.78" stroke="rgba(4, 41, 89, 1)" stroke-width="1.5"></path>
        <path d="M1158.03 44.35L1158.03 44.35" stroke="rgba(4, 41, 89, 1)" stroke-width="1.5"></path>
        <path d="M1158.03 44.35L1291.25 66.12" stroke="rgba(4, 41, 89, 1)" stroke-width="1.5"></path>
        <path d="M1156.68 195.78L1156.68 195.78" stroke="rgba(4, 41, 89, 1)" stroke-width="1.5"></path>
        <path d="M1156.68 195.78L1158.03 44.35" stroke="rgba(4, 41, 89, 1)" stroke-width="1.5"></path>
        <path d="M1156.68 195.78L1307.94 262.21" stroke="rgba(4, 41, 89, 1)" stroke-width="1.5"></path>
        <path d="M1156.68 195.78L1005.12 91.62" stroke="rgba(4, 41, 89, 1)" stroke-width="1.5"></path>
        <path d="M1156.68 195.78L1291.25 66.12" stroke="rgba(4, 41, 89, 1)" stroke-width="1.5"></path>
        <path d="M1156.68 195.78L964.95 189.41" stroke="rgba(4, 41, 89, 1)" stroke-width="1.5"></path>
        <path d="M1112.76 392.31L1112.76 392.31" stroke="rgba(4, 41, 89, 1)" stroke-width="1.5"></path>
        <path d="M1112.76 392.31L1150.59 542.75" stroke="rgba(4, 41, 89, 1)" stroke-width="1.5"></path>
        <path d="M1150.59 542.75L1150.59 542.75" stroke="rgba(4, 41, 89, 1)" stroke-width="1.5"></path>
        <path d="M1150.59 542.75L1241.58 506.88" stroke="rgba(4, 41, 89, 1)" stroke-width="1.5"></path>
        <path d="M1150.59 542.75L1135.41 703.65" stroke="rgba(4, 41, 89, 1)" stroke-width="1.5"></path>
        <path d="M1150.59 542.75L1297.12 355.67" stroke="rgba(4, 41, 89, 1)" stroke-width="1.5"></path>
        <path d="M1150.59 542.75L999.58 352.27" stroke="rgba(4, 41, 89, 1)" stroke-width="1.5"></path>
        <path d="M1135.41 703.65L1135.41 703.65" stroke="rgba(4, 41, 89, 1)" stroke-width="1.5"></path>
        <path d="M1289.39 -101.09L1289.39 -101.09" stroke="rgba(4, 41, 89, 1)" stroke-width="1.5"></path>
        <path d="M1289.39 -101.09L1437.17 -68.79" stroke="rgba(4, 41, 89, 1)" stroke-width="1.5"></path>
        <path d="M1289.39 -101.09L1291.25 66.12" stroke="rgba(4, 41, 89, 1)" stroke-width="1.5"></path>
        <path d="M1289.39 -101.09L1158.03 44.35" stroke="rgba(4, 41, 89, 1)" stroke-width="1.5"></path>
        <path d="M1291.25 66.12L1291.25 66.12" stroke="rgba(4, 41, 89, 1)" stroke-width="1.5"></path>
        <path d="M1291.25 66.12L1415.88 80.97" stroke="rgba(4, 41, 89, 1)" stroke-width="1.5"></path>
        <path d="M1307.94 262.21L1307.94 262.21" stroke="rgba(4, 41, 89, 1)" stroke-width="1.5"></path>
        <path d="M1307.94 262.21L1297.12 355.67" stroke="rgba(4, 41, 89, 1)" stroke-width="1.5"></path>
        <path d="M1307.94 262.21L1418.4 351.85" stroke="rgba(4, 41, 89, 1)" stroke-width="1.5"></path>
        <path d="M1307.94 262.21L1452.85 261.25" stroke="rgba(4, 41, 89, 1)" stroke-width="1.5"></path>
        <path d="M1307.94 262.21L1291.25 66.12" stroke="rgba(4, 41, 89, 1)" stroke-width="1.5"></path>
        <path d="M1297.12 355.67L1297.12 355.67" stroke="rgba(4, 41, 89, 1)" stroke-width="1.5"></path>
        <path d="M1241.58 506.88L1241.58 506.88" stroke="rgba(4, 41, 89, 1)" stroke-width="1.5"></path>
        <path d="M1241.58 506.88L1297.12 355.67" stroke="rgba(4, 41, 89, 1)" stroke-width="1.5"></path>
        <path d="M1241.58 506.88L1112.76 392.31" stroke="rgba(4, 41, 89, 1)" stroke-width="1.5"></path>
        <path d="M1241.58 506.88L1135.41 703.65" stroke="rgba(4, 41, 89, 1)" stroke-width="1.5"></path>
        <path d="M1241.58 506.88L1418.4 351.85" stroke="rgba(4, 41, 89, 1)" stroke-width="1.5"></path>
        <path d="M1241.58 506.88L996.6 550.58" stroke="rgba(4, 41, 89, 1)" stroke-width="1.5"></path>
        <path d="M1437.17 -68.79L1437.17 -68.79" stroke="rgba(4, 41, 89, 1)" stroke-width="1.5"></path>
        <path d="M1437.17 -68.79L1546.57 -84.62" stroke="rgba(4, 41, 89, 1)" stroke-width="1.5"></path>
        <path d="M1437.17 -68.79L1415.88 80.97" stroke="rgba(4, 41, 89, 1)" stroke-width="1.5"></path>
        <path d="M1415.88 80.97L1415.88 80.97" stroke="rgba(4, 41, 89, 1)" stroke-width="1.5"></path>
        <path d="M1415.88 80.97L1590.87 98.92" stroke="rgba(4, 41, 89, 1)" stroke-width="1.5"></path>
        <path d="M1415.88 80.97L1452.85 261.25" stroke="rgba(4, 41, 89, 1)" stroke-width="1.5"></path>
        <path d="M1415.88 80.97L1571.16 189.51" stroke="rgba(4, 41, 89, 1)" stroke-width="1.5"></path>
        <path d="M1415.88 80.97L1307.94 262.21" stroke="rgba(4, 41, 89, 1)" stroke-width="1.5"></path>
        <path d="M1452.85 261.25L1452.85 261.25" stroke="rgba(4, 41, 89, 1)" stroke-width="1.5"></path>
        <path d="M1452.85 261.25L1418.4 351.85" stroke="rgba(4, 41, 89, 1)" stroke-width="1.5"></path>
        <path d="M1452.85 261.25L1571.16 189.51" stroke="rgba(4, 41, 89, 1)" stroke-width="1.5"></path>
        <path d="M1418.4 351.85L1418.4 351.85" stroke="rgba(4, 41, 89, 1)" stroke-width="1.5"></path>
        <path d="M1418.4 351.85L1297.12 355.67" stroke="rgba(4, 41, 89, 1)" stroke-width="1.5"></path>
        <path d="M1418.4 351.85L1543.78 388.56" stroke="rgba(4, 41, 89, 1)" stroke-width="1.5"></path>
        <path d="M1433.21 687.02L1433.21 687.02" stroke="rgba(4, 41, 89, 1)" stroke-width="1.5"></path>
        <path d="M1433.21 687.02L1560.35 697" stroke="rgba(4, 41, 89, 1)" stroke-width="1.5"></path>
        <path d="M1433.21 687.02L1541.84 524.22" stroke="rgba(4, 41, 89, 1)" stroke-width="1.5"></path>
        <path d="M1433.21 687.02L1241.58 506.88" stroke="rgba(4, 41, 89, 1)" stroke-width="1.5"></path>
        <path d="M1546.57 -84.62L1546.57 -84.62" stroke="rgba(4, 41, 89, 1)" stroke-width="1.5"></path>
        <path d="M1546.57 -84.62L1590.87 98.92" stroke="rgba(4, 41, 89, 1)" stroke-width="1.5"></path>
        <path d="M1590.87 98.92L1590.87 98.92" stroke="rgba(4, 41, 89, 1)" stroke-width="1.5"></path>
        <path d="M1590.87 98.92L1571.16 189.51" stroke="rgba(4, 41, 89, 1)" stroke-width="1.5"></path>
        <path d="M1571.16 189.51L1571.16 189.51" stroke="rgba(4, 41, 89, 1)" stroke-width="1.5"></path>
        <path d="M1571.16 189.51L1543.78 388.56" stroke="rgba(4, 41, 89, 1)" stroke-width="1.5"></path>
        <path d="M1571.16 189.51L1418.4 351.85" stroke="rgba(4, 41, 89, 1)" stroke-width="1.5"></path>
        <path d="M1571.16 189.51L1307.94 262.21" stroke="rgba(4, 41, 89, 1)" stroke-width="1.5"></path>
        <path d="M1543.78 388.56L1543.78 388.56" stroke="rgba(4, 41, 89, 1)" stroke-width="1.5"></path>
        <path d="M1543.78 388.56L1541.84 524.22" stroke="rgba(4, 41, 89, 1)" stroke-width="1.5"></path>
        <path d="M1543.78 388.56L1452.85 261.25" stroke="rgba(4, 41, 89, 1)" stroke-width="1.5"></path>
        <path d="M1541.84 524.22L1541.84 524.22" stroke="rgba(4, 41, 89, 1)" stroke-width="1.5"></path>
        <path d="M1541.84 524.22L1560.35 697" stroke="rgba(4, 41, 89, 1)" stroke-width="1.5"></path>
        <path d="M1560.35 697L1560.35 697" stroke="rgba(4, 41, 89, 1)" stroke-width="1.5"></path>
        <path d="M1560.35 697L1543.78 388.56" stroke="rgba(4, 41, 89, 1)" stroke-width="1.5"></path>
        <path d="M1560.35 697L1241.58 506.88" stroke="rgba(4, 41, 89, 1)" stroke-width="1.5"></path>
        <path d="M1560.35 697L1418.4 351.85" stroke="rgba(4, 41, 89, 1)" stroke-width="1.5"></path>
        <circle r="5" cx="-94.53" cy="376.29" fill="rgba(4, 41, 89, 1)"></circle>
        <circle r="5" cx="-80.04" cy="551.6" fill="rgba(4, 41, 89, 1)"></circle>
        <circle r="5" cx="-71.01" cy="693.26" fill="rgba(4, 41, 89, 1)"></circle>
        <circle r="5" cx="62.64" cy="360.47" fill="rgba(4, 41, 89, 1)"></circle>
        <circle r="5" cx="109.16" cy="549.78" fill="rgba(4, 41, 89, 1)"></circle>
        <circle r="5" cx="200.65" cy="373.21" fill="rgba(4, 41, 89, 1)"></circle>
        <circle r="5" cx="238.81" cy="523.76" fill="rgba(4, 41, 89, 1)"></circle>
        <circle r="5" cx="226.93" cy="651.9" fill="rgba(4, 41, 89, 1)"></circle>
        <circle r="5" cx="377.92" cy="352.15" fill="rgba(4, 41, 89, 1)"></circle>
        <circle r="5" cx="360.88" cy="562.45" fill="rgba(4, 41, 89, 1)"></circle>
        <circle r="5" cx="356.78" cy="653.76" fill="rgba(4, 41, 89, 1)"></circle>
        <circle r="5" cx="492.03" cy="348" fill="rgba(4, 41, 89, 1)"></circle>
        <circle r="5" cx="509.3" cy="550.71" fill="rgba(4, 41, 89, 1)"></circle>
        <circle r="5" cx="492.74" cy="709.53" fill="rgba(4, 41, 89, 1)"></circle>
        <circle r="5" cx="681.81" cy="212.98" fill="rgba(4, 41, 89, 1)"></circle>
        <circle r="5" cx="703.05" cy="366.4" fill="rgba(4, 41, 89, 1)"></circle>
        <circle r="5" cx="653.63" cy="533.58" fill="rgba(4, 41, 89, 1)"></circle>
        <circle r="5" cx="712.4" cy="702.84" fill="rgba(4, 41, 89, 1)"></circle>
        <circle r="5" cx="796.39" cy="189.7" fill="rgba(4, 41, 89, 1)"></circle>
        <circle r="5" cx="821.84" cy="341.86" fill="rgba(4, 41, 89, 1)"></circle>
        <circle r="5" cx="811.2" cy="702.17" fill="rgba(4, 41, 89, 1)"></circle>
        <circle r="5" cx="968" cy="-38.98" fill="rgba(4, 41, 89, 1)"></circle>
        <circle r="5" cx="1005.12" cy="91.62" fill="rgba(4, 41, 89, 1)"></circle>
        <circle r="5" cx="964.95" cy="189.41" fill="rgba(4, 41, 89, 1)"></circle>
        <circle r="5" cx="999.58" cy="352.27" fill="rgba(4, 41, 89, 1)"></circle>
        <circle r="5" cx="996.6" cy="550.58" fill="rgba(4, 41, 89, 1)"></circle>
        <circle r="5" cx="1120.41" cy="-71.18" fill="rgba(4, 41, 89, 1)"></circle>
        <circle r="5" cx="1158.03" cy="44.35" fill="rgba(4, 41, 89, 1)"></circle>
        <circle r="5" cx="1156.68" cy="195.78" fill="rgba(4, 41, 89, 1)"></circle>
        <circle r="5" cx="1112.76" cy="392.31" fill="rgba(4, 41, 89, 1)"></circle>
        <circle r="5" cx="1150.59" cy="542.75" fill="rgba(4, 41, 89, 1)"></circle>
        <circle r="5" cx="1135.41" cy="703.65" fill="rgba(4, 41, 89, 1)"></circle>
        <circle r="5" cx="1289.39" cy="-101.09" fill="rgba(4, 41, 89, 1)"></circle>
        <circle r="5" cx="1291.25" cy="66.12" fill="rgba(4, 41, 89, 1)"></circle>
        <circle r="5" cx="1307.94" cy="262.21" fill="rgba(4, 41, 89, 1)"></circle>
        <circle r="5" cx="1297.12" cy="355.67" fill="rgba(4, 41, 89, 1)"></circle>
        <circle r="5" cx="1241.58" cy="506.88" fill="rgba(4, 41, 89, 1)"></circle>
        <circle r="5" cx="1437.17" cy="-68.79" fill="rgba(4, 41, 89, 1)"></circle>
        <circle r="5" cx="1415.88" cy="80.97" fill="rgba(4, 41, 89, 1)"></circle>
        <circle r="5" cx="1452.85" cy="261.25" fill="rgba(4, 41, 89, 1)"></circle>
        <circle r="5" cx="1418.4" cy="351.85" fill="rgba(4, 41, 89, 1)"></circle>
        <circle r="5" cx="1433.21" cy="687.02" fill="rgba(4, 41, 89, 1)"></circle>
        <circle r="5" cx="1546.57" cy="-84.62" fill="rgba(4, 41, 89, 1)"></circle>
        <circle r="5" cx="1590.87" cy="98.92" fill="rgba(4, 41, 89, 1)"></circle>
        <circle r="5" cx="1571.16" cy="189.51" fill="rgba(4, 41, 89, 1)"></circle>
        <circle r="5" cx="1543.78" cy="388.56" fill="rgba(4, 41, 89, 1)"></circle>
        <circle r="5" cx="1541.84" cy="524.22" fill="rgba(4, 41, 89, 1)"></circle>
        <circle r="5" cx="1560.35" cy="697" fill="rgba(4, 41, 89, 1)"></circle>
        <path d="M-110.07 528.52L-110.07 528.52" stroke="hsl(196.89999999999998, 96.4%, 56.3%)" stroke-width="1.5"></path>
        <path d="M-110.07 528.52L-96.85 648.64" stroke="hsl(196.89999999999998, 96.4%, 56.3%)" stroke-width="1.5"></path>
        <path d="M-110.07 528.52L82.33 510.89" stroke="hsl(196.89999999999998, 96.4%, 56.3%)" stroke-width="1.5"></path>
        <path d="M-110.07 528.52L79.47 708.79" stroke="hsl(196.89999999999998, 96.4%, 56.3%)" stroke-width="1.5"></path>
        <path d="M818.19 356.07L818.19 356.07" stroke="hsl(196.89999999999998, 96.4%, 56.3%)" stroke-width="1.5"></path>
        <path d="M818.19 356.07L849.43 512.23" stroke="hsl(196.89999999999998, 96.4%, 56.3%)" stroke-width="1.5"></path>
        <path d="M818.19 356.07L981.45 397.46" stroke="hsl(196.89999999999998, 96.4%, 56.3%)" stroke-width="1.5"></path>
        <path d="M818.19 356.07L990.03 256.86" stroke="hsl(196.89999999999998, 96.4%, 56.3%)" stroke-width="1.5"></path>
        <path d="M818.19 356.07L710.23 535.64" stroke="hsl(196.89999999999998, 96.4%, 56.3%)" stroke-width="1.5"></path>
        <path d="M818.19 356.07L949.97 551.29" stroke="hsl(196.89999999999998, 96.4%, 56.3%)" stroke-width="1.5"></path>
        <path d="M990.03 256.86L990.03 256.86" stroke="hsl(196.89999999999998, 96.4%, 56.3%)" stroke-width="1.5"></path>
        <path d="M990.03 256.86L1122.15 227.72" stroke="hsl(196.89999999999998, 96.4%, 56.3%)" stroke-width="1.5"></path>
        <path d="M990.03 256.86L981.45 397.46" stroke="hsl(196.89999999999998, 96.4%, 56.3%)" stroke-width="1.5"></path>
        <path d="M1133.44 707.93L1133.44 707.93" stroke="hsl(196.89999999999998, 96.4%, 56.3%)" stroke-width="1.5"></path>
        <path d="M1133.44 707.93L979.49 684.3" stroke="hsl(196.89999999999998, 96.4%, 56.3%)" stroke-width="1.5"></path>
        <path d="M1133.44 707.93L1136.79 531.99" stroke="hsl(196.89999999999998, 96.4%, 56.3%)" stroke-width="1.5"></path>
        <path d="M1297.2 226.63L1297.2 226.63" stroke="hsl(196.89999999999998, 96.4%, 56.3%)" stroke-width="1.5"></path>
        <path d="M1297.2 226.63L1272.89 341.4" stroke="hsl(196.89999999999998, 96.4%, 56.3%)" stroke-width="1.5"></path>
        <path d="M1297.2 226.63L1291.21 84.59" stroke="hsl(196.89999999999998, 96.4%, 56.3%)" stroke-width="1.5"></path>
        <path d="M1297.2 226.63L1451.87 189.79" stroke="hsl(196.89999999999998, 96.4%, 56.3%)" stroke-width="1.5"></path>
        <path d="M1297.2 226.63L1122.15 227.72" stroke="hsl(196.89999999999998, 96.4%, 56.3%)" stroke-width="1.5"></path>
        <path d="M1297.2 226.63L1407.11 406.91" stroke="hsl(196.89999999999998, 96.4%, 56.3%)" stroke-width="1.5"></path>
        <path d="M1308.17 666.34L1308.17 666.34" stroke="hsl(196.89999999999998, 96.4%, 56.3%)" stroke-width="1.5"></path>
        <path d="M1308.17 666.34L1391.51 551.46" stroke="hsl(196.89999999999998, 96.4%, 56.3%)" stroke-width="1.5"></path>
        <path d="M1308.17 666.34L1457.42 702.9" stroke="hsl(196.89999999999998, 96.4%, 56.3%)" stroke-width="1.5"></path>
        <path d="M1308.17 666.34L1133.44 707.93" stroke="hsl(196.89999999999998, 96.4%, 56.3%)" stroke-width="1.5"></path>
        <path d="M1308.17 666.34L1245.95 490.06" stroke="hsl(196.89999999999998, 96.4%, 56.3%)" stroke-width="1.5"></path>
        <path d="M1308.17 666.34L1136.79 531.99" stroke="hsl(196.89999999999998, 96.4%, 56.3%)" stroke-width="1.5"></path>
        <path d="M1461.1 88.61L1461.1 88.61" stroke="hsl(196.89999999999998, 96.4%, 56.3%)" stroke-width="1.5"></path>
        <path d="M1461.1 88.61L1539.67 54.64" stroke="hsl(196.89999999999998, 96.4%, 56.3%)" stroke-width="1.5"></path>
        <path d="M1461.1 88.61L1451.87 189.79" stroke="hsl(196.89999999999998, 96.4%, 56.3%)" stroke-width="1.5"></path>
        <path d="M1461.1 88.61L1570.36 204.64" stroke="hsl(196.89999999999998, 96.4%, 56.3%)" stroke-width="1.5"></path>
        <path d="M1461.1 88.61L1291.21 84.59" stroke="hsl(196.89999999999998, 96.4%, 56.3%)" stroke-width="1.5"></path>
        <path d="M1461.1 88.61L1443.13 -97.22" stroke="hsl(196.89999999999998, 96.4%, 56.3%)" stroke-width="1.5"></path>
        <path d="M1461.1 88.61L1560.99 -86.18" stroke="hsl(196.89999999999998, 96.4%, 56.3%)" stroke-width="1.5"></path>
        <path d="M1539.67 54.64L1539.67 54.64" stroke="hsl(196.89999999999998, 96.4%, 56.3%)" stroke-width="1.5"></path>
        <path d="M1539.67 54.64L1560.99 -86.18" stroke="hsl(196.89999999999998, 96.4%, 56.3%)" stroke-width="1.5"></path>
        <path d="M1579.68 660.4L1579.68 660.4" stroke="hsl(196.89999999999998, 96.4%, 56.3%)" stroke-width="1.5"></path>
        <path d="M1579.68 660.4L1596.18 535.71" stroke="hsl(196.89999999999998, 96.4%, 56.3%)" stroke-width="1.5"></path>
        <path d="M1579.68 660.4L1457.42 702.9" stroke="hsl(196.89999999999998, 96.4%, 56.3%)" stroke-width="1.5"></path>
        <path d="M1579.68 660.4L1391.51 551.46" stroke="hsl(196.89999999999998, 96.4%, 56.3%)" stroke-width="1.5"></path>
        <path d="M-96.85 648.64L-96.85 648.64" stroke="hsl(196.89999999999998, 96.4%, 56.3%)" stroke-width="1.5"></path>
        <path d="M-96.85 648.64L79.47 708.79" stroke="hsl(196.89999999999998, 96.4%, 56.3%)" stroke-width="1.5"></path>
        <path d="M-96.85 648.64L82.33 510.89" stroke="hsl(196.89999999999998, 96.4%, 56.3%)" stroke-width="1.5"></path>
        <path d="M-96.85 648.64L206.8 644.1" stroke="hsl(196.89999999999998, 96.4%, 56.3%)" stroke-width="1.5"></path>
        <path d="M-96.85 648.64L255.91 501.43" stroke="hsl(196.89999999999998, 96.4%, 56.3%)" stroke-width="1.5"></path>
        <path d="M-96.85 648.64L347.12 508.57" stroke="hsl(196.89999999999998, 96.4%, 56.3%)" stroke-width="1.5"></path>
        <path d="M82.33 510.89L82.33 510.89" stroke="hsl(196.89999999999998, 96.4%, 56.3%)" stroke-width="1.5"></path>
        <path d="M82.33 510.89L255.91 501.43" stroke="hsl(196.89999999999998, 96.4%, 56.3%)" stroke-width="1.5"></path>
        <path d="M82.33 510.89L206.8 644.1" stroke="hsl(196.89999999999998, 96.4%, 56.3%)" stroke-width="1.5"></path>
        <path d="M79.47 708.79L79.47 708.79" stroke="hsl(196.89999999999998, 96.4%, 56.3%)" stroke-width="1.5"></path>
        <path d="M79.47 708.79L206.8 644.1" stroke="hsl(196.89999999999998, 96.4%, 56.3%)" stroke-width="1.5"></path>
        <path d="M255.91 501.43L255.91 501.43" stroke="hsl(196.89999999999998, 96.4%, 56.3%)" stroke-width="1.5"></path>
        <path d="M255.91 501.43L347.12 508.57" stroke="hsl(196.89999999999998, 96.4%, 56.3%)" stroke-width="1.5"></path>
        <path d="M255.91 501.43L206.8 644.1" stroke="hsl(196.89999999999998, 96.4%, 56.3%)" stroke-width="1.5"></path>
        <path d="M206.8 644.1L206.8 644.1" stroke="hsl(196.89999999999998, 96.4%, 56.3%)" stroke-width="1.5"></path>
        <path d="M347.12 508.57L347.12 508.57" stroke="hsl(196.89999999999998, 96.4%, 56.3%)" stroke-width="1.5"></path>
        <path d="M347.12 508.57L508.55 550.15" stroke="hsl(196.89999999999998, 96.4%, 56.3%)" stroke-width="1.5"></path>
        <path d="M347.12 508.57L206.8 644.1" stroke="hsl(196.89999999999998, 96.4%, 56.3%)" stroke-width="1.5"></path>
        <path d="M347.12 508.57L552.73 649.02" stroke="hsl(196.89999999999998, 96.4%, 56.3%)" stroke-width="1.5"></path>
        <path d="M347.12 508.57L82.33 510.89" stroke="hsl(196.89999999999998, 96.4%, 56.3%)" stroke-width="1.5"></path>
        <path d="M508.55 550.15L508.55 550.15" stroke="hsl(196.89999999999998, 96.4%, 56.3%)" stroke-width="1.5"></path>
        <path d="M508.55 550.15L552.73 649.02" stroke="hsl(196.89999999999998, 96.4%, 56.3%)" stroke-width="1.5"></path>
        <path d="M508.55 550.15L668.71 660.82" stroke="hsl(196.89999999999998, 96.4%, 56.3%)" stroke-width="1.5"></path>
        <path d="M508.55 550.15L710.23 535.64" stroke="hsl(196.89999999999998, 96.4%, 56.3%)" stroke-width="1.5"></path>
        <path d="M508.55 550.15L255.91 501.43" stroke="hsl(196.89999999999998, 96.4%, 56.3%)" stroke-width="1.5"></path>
        <path d="M552.73 649.02L552.73 649.02" stroke="hsl(196.89999999999998, 96.4%, 56.3%)" stroke-width="1.5"></path>
        <path d="M552.73 649.02L668.71 660.82" stroke="hsl(196.89999999999998, 96.4%, 56.3%)" stroke-width="1.5"></path>
        <path d="M710.23 535.64L710.23 535.64" stroke="hsl(196.89999999999998, 96.4%, 56.3%)" stroke-width="1.5"></path>
        <path d="M710.23 535.64L668.71 660.82" stroke="hsl(196.89999999999998, 96.4%, 56.3%)" stroke-width="1.5"></path>
        <path d="M710.23 535.64L849.43 512.23" stroke="hsl(196.89999999999998, 96.4%, 56.3%)" stroke-width="1.5"></path>
        <path d="M710.23 535.64L552.73 649.02" stroke="hsl(196.89999999999998, 96.4%, 56.3%)" stroke-width="1.5"></path>
        <path d="M668.71 660.82L668.71 660.82" stroke="hsl(196.89999999999998, 96.4%, 56.3%)" stroke-width="1.5"></path>
        <path d="M668.71 660.82L849.43 512.23" stroke="hsl(196.89999999999998, 96.4%, 56.3%)" stroke-width="1.5"></path>
        <path d="M668.71 660.82L949.97 551.29" stroke="hsl(196.89999999999998, 96.4%, 56.3%)" stroke-width="1.5"></path>
        <path d="M849.43 512.23L849.43 512.23" stroke="hsl(196.89999999999998, 96.4%, 56.3%)" stroke-width="1.5"></path>
        <path d="M849.43 512.23L949.97 551.29" stroke="hsl(196.89999999999998, 96.4%, 56.3%)" stroke-width="1.5"></path>
        <path d="M849.43 512.23L981.45 397.46" stroke="hsl(196.89999999999998, 96.4%, 56.3%)" stroke-width="1.5"></path>
        <path d="M849.43 512.23L979.49 684.3" stroke="hsl(196.89999999999998, 96.4%, 56.3%)" stroke-width="1.5"></path>
        <path d="M981.45 397.46L981.45 397.46" stroke="hsl(196.89999999999998, 96.4%, 56.3%)" stroke-width="1.5"></path>
        <path d="M981.45 397.46L1118.52 346.21" stroke="hsl(196.89999999999998, 96.4%, 56.3%)" stroke-width="1.5"></path>
        <path d="M981.45 397.46L949.97 551.29" stroke="hsl(196.89999999999998, 96.4%, 56.3%)" stroke-width="1.5"></path>
        <path d="M981.45 397.46L1136.79 531.99" stroke="hsl(196.89999999999998, 96.4%, 56.3%)" stroke-width="1.5"></path>
        <path d="M949.97 551.29L949.97 551.29" stroke="hsl(196.89999999999998, 96.4%, 56.3%)" stroke-width="1.5"></path>
        <path d="M949.97 551.29L979.49 684.3" stroke="hsl(196.89999999999998, 96.4%, 56.3%)" stroke-width="1.5"></path>
        <path d="M949.97 551.29L1136.79 531.99" stroke="hsl(196.89999999999998, 96.4%, 56.3%)" stroke-width="1.5"></path>
        <path d="M979.49 684.3L979.49 684.3" stroke="hsl(196.89999999999998, 96.4%, 56.3%)" stroke-width="1.5"></path>
        <path d="M979.49 684.3L1136.79 531.99" stroke="hsl(196.89999999999998, 96.4%, 56.3%)" stroke-width="1.5"></path>
        <path d="M1122.15 227.72L1122.15 227.72" stroke="hsl(196.89999999999998, 96.4%, 56.3%)" stroke-width="1.5"></path>
        <path d="M1122.15 227.72L1118.52 346.21" stroke="hsl(196.89999999999998, 96.4%, 56.3%)" stroke-width="1.5"></path>
        <path d="M1122.15 227.72L1272.89 341.4" stroke="hsl(196.89999999999998, 96.4%, 56.3%)" stroke-width="1.5"></path>
        <path d="M1118.52 346.21L1118.52 346.21" stroke="hsl(196.89999999999998, 96.4%, 56.3%)" stroke-width="1.5"></path>
        <path d="M1118.52 346.21L1272.89 341.4" stroke="hsl(196.89999999999998, 96.4%, 56.3%)" stroke-width="1.5"></path>
        <path d="M1118.52 346.21L990.03 256.86" stroke="hsl(196.89999999999998, 96.4%, 56.3%)" stroke-width="1.5"></path>
        <path d="M1136.79 531.99L1136.79 531.99" stroke="hsl(196.89999999999998, 96.4%, 56.3%)" stroke-width="1.5"></path>
        <path d="M1136.79 531.99L1245.95 490.06" stroke="hsl(196.89999999999998, 96.4%, 56.3%)" stroke-width="1.5"></path>
        <path d="M1264.42 -101.58L1264.42 -101.58" stroke="hsl(196.89999999999998, 96.4%, 56.3%)" stroke-width="1.5"></path>
        <path d="M1264.42 -101.58L1443.13 -97.22" stroke="hsl(196.89999999999998, 96.4%, 56.3%)" stroke-width="1.5"></path>
        <path d="M1264.42 -101.58L1291.21 84.59" stroke="hsl(196.89999999999998, 96.4%, 56.3%)" stroke-width="1.5"></path>
        <path d="M1264.42 -101.58L1461.1 88.61" stroke="hsl(196.89999999999998, 96.4%, 56.3%)" stroke-width="1.5"></path>
        <path d="M1264.42 -101.58L1560.99 -86.18" stroke="hsl(196.89999999999998, 96.4%, 56.3%)" stroke-width="1.5"></path>
        <path d="M1291.21 84.59L1291.21 84.59" stroke="hsl(196.89999999999998, 96.4%, 56.3%)" stroke-width="1.5"></path>
        <path d="M1272.89 341.4L1272.89 341.4" stroke="hsl(196.89999999999998, 96.4%, 56.3%)" stroke-width="1.5"></path>
        <path d="M1272.89 341.4L1407.11 406.91" stroke="hsl(196.89999999999998, 96.4%, 56.3%)" stroke-width="1.5"></path>
        <path d="M1272.89 341.4L1245.95 490.06" stroke="hsl(196.89999999999998, 96.4%, 56.3%)" stroke-width="1.5"></path>
        <path d="M1272.89 341.4L1136.79 531.99" stroke="hsl(196.89999999999998, 96.4%, 56.3%)" stroke-width="1.5"></path>
        <path d="M1245.95 490.06L1245.95 490.06" stroke="hsl(196.89999999999998, 96.4%, 56.3%)" stroke-width="1.5"></path>
        <path d="M1245.95 490.06L1391.51 551.46" stroke="hsl(196.89999999999998, 96.4%, 56.3%)" stroke-width="1.5"></path>
        <path d="M1443.13 -97.22L1443.13 -97.22" stroke="hsl(196.89999999999998, 96.4%, 56.3%)" stroke-width="1.5"></path>
        <path d="M1443.13 -97.22L1560.99 -86.18" stroke="hsl(196.89999999999998, 96.4%, 56.3%)" stroke-width="1.5"></path>
        <path d="M1443.13 -97.22L1539.67 54.64" stroke="hsl(196.89999999999998, 96.4%, 56.3%)" stroke-width="1.5"></path>
        <path d="M1443.13 -97.22L1291.21 84.59" stroke="hsl(196.89999999999998, 96.4%, 56.3%)" stroke-width="1.5"></path>
        <path d="M1443.13 -97.22L1451.87 189.79" stroke="hsl(196.89999999999998, 96.4%, 56.3%)" stroke-width="1.5"></path>
        <path d="M1451.87 189.79L1451.87 189.79" stroke="hsl(196.89999999999998, 96.4%, 56.3%)" stroke-width="1.5"></path>
        <path d="M1451.87 189.79L1570.36 204.64" stroke="hsl(196.89999999999998, 96.4%, 56.3%)" stroke-width="1.5"></path>
        <path d="M1451.87 189.79L1539.67 54.64" stroke="hsl(196.89999999999998, 96.4%, 56.3%)" stroke-width="1.5"></path>
        <path d="M1407.11 406.91L1407.11 406.91" stroke="hsl(196.89999999999998, 96.4%, 56.3%)" stroke-width="1.5"></path>
        <path d="M1407.11 406.91L1391.51 551.46" stroke="hsl(196.89999999999998, 96.4%, 56.3%)" stroke-width="1.5"></path>
        <path d="M1391.51 551.46L1391.51 551.46" stroke="hsl(196.89999999999998, 96.4%, 56.3%)" stroke-width="1.5"></path>
        <path d="M1391.51 551.46L1457.42 702.9" stroke="hsl(196.89999999999998, 96.4%, 56.3%)" stroke-width="1.5"></path>
        <path d="M1391.51 551.46L1596.18 535.71" stroke="hsl(196.89999999999998, 96.4%, 56.3%)" stroke-width="1.5"></path>
        <path d="M1457.42 702.9L1457.42 702.9" stroke="hsl(196.89999999999998, 96.4%, 56.3%)" stroke-width="1.5"></path>
        <path d="M1560.99 -86.18L1560.99 -86.18" stroke="hsl(196.89999999999998, 96.4%, 56.3%)" stroke-width="1.5"></path>
        <path d="M1570.36 204.64L1570.36 204.64" stroke="hsl(196.89999999999998, 96.4%, 56.3%)" stroke-width="1.5"></path>
        <path d="M1570.36 204.64L1539.67 54.64" stroke="hsl(196.89999999999998, 96.4%, 56.3%)" stroke-width="1.5"></path>
        <path d="M1570.36 204.64L1575.25 409.86" stroke="hsl(196.89999999999998, 96.4%, 56.3%)" stroke-width="1.5"></path>
        <path d="M1570.36 204.64L1407.11 406.91" stroke="hsl(196.89999999999998, 96.4%, 56.3%)" stroke-width="1.5"></path>
        <path d="M1570.36 204.64L1297.2 226.63" stroke="hsl(196.89999999999998, 96.4%, 56.3%)" stroke-width="1.5"></path>
        <path d="M1575.25 409.86L1575.25 409.86" stroke="hsl(196.89999999999998, 96.4%, 56.3%)" stroke-width="1.5"></path>
        <path d="M1575.25 409.86L1596.18 535.71" stroke="hsl(196.89999999999998, 96.4%, 56.3%)" stroke-width="1.5"></path>
        <path d="M1575.25 409.86L1407.11 406.91" stroke="hsl(196.89999999999998, 96.4%, 56.3%)" stroke-width="1.5"></path>
        <path d="M1575.25 409.86L1391.51 551.46" stroke="hsl(196.89999999999998, 96.4%, 56.3%)" stroke-width="1.5"></path>
        <path d="M1575.25 409.86L1579.68 660.4" stroke="hsl(196.89999999999998, 96.4%, 56.3%)" stroke-width="1.5"></path>
        <path d="M1575.25 409.86L1451.87 189.79" stroke="hsl(196.89999999999998, 96.4%, 56.3%)" stroke-width="1.5"></path>
        <path d="M1596.18 535.71L1596.18 535.71" stroke="hsl(196.89999999999998, 96.4%, 56.3%)" stroke-width="1.5"></path>
        <path d="M1596.18 535.71L1457.42 702.9" stroke="hsl(196.89999999999998, 96.4%, 56.3%)" stroke-width="1.5"></path>
        <path d="M1596.18 535.71L1407.11 406.91" stroke="hsl(196.89999999999998, 96.4%, 56.3%)" stroke-width="1.5"></path>
        <path d="M1596.18 535.71L1308.17 666.34" stroke="hsl(196.89999999999998, 96.4%, 56.3%)" stroke-width="1.5"></path>
        <circle r="25" cx="-110.07" cy="528.52" fill="url(&quot;#SvgjsRadialGradient1997&quot;)"></circle>
        <circle r="25" cx="818.19" cy="356.07" fill="url(&quot;#SvgjsRadialGradient1997&quot;)"></circle>
        <circle r="25" cx="990.03" cy="256.86" fill="url(&quot;#SvgjsRadialGradient1997&quot;)"></circle>
        <circle r="25" cx="1133.44" cy="707.93" fill="url(&quot;#SvgjsRadialGradient1997&quot;)"></circle>
        <circle r="25" cx="1297.2" cy="226.63" fill="url(&quot;#SvgjsRadialGradient1997&quot;)"></circle>
        <circle r="25" cx="1308.17" cy="666.34" fill="url(&quot;#SvgjsRadialGradient1997&quot;)"></circle>
        <circle r="25" cx="1461.1" cy="88.61" fill="url(&quot;#SvgjsRadialGradient1997&quot;)"></circle>
        <circle r="25" cx="1539.67" cy="54.64" fill="url(&quot;#SvgjsRadialGradient1997&quot;)"></circle>
        <circle r="25" cx="1579.68" cy="660.4" fill="url(&quot;#SvgjsRadialGradient1997&quot;)"></circle>
        <circle r="5" cx="-96.85" cy="648.64" fill="#82ceec"></circle>
        <circle r="5" cx="82.33" cy="510.89" fill="#82ceec"></circle>
        <circle r="5" cx="79.47" cy="708.79" fill="#82ceec"></circle>
        <circle r="5" cx="255.91" cy="501.43" fill="#82ceec"></circle>
        <circle r="5" cx="206.8" cy="644.1" fill="#82ceec"></circle>
        <circle r="5" cx="347.12" cy="508.57" fill="#82ceec"></circle>
        <circle r="5" cx="508.55" cy="550.15" fill="#82ceec"></circle>
        <circle r="5" cx="552.73" cy="649.02" fill="#82ceec"></circle>
        <circle r="5" cx="710.23" cy="535.64" fill="#82ceec"></circle>
        <circle r="5" cx="668.71" cy="660.82" fill="#82ceec"></circle>
        <circle r="5" cx="849.43" cy="512.23" fill="#82ceec"></circle>
        <circle r="5" cx="981.45" cy="397.46" fill="#82ceec"></circle>
        <circle r="5" cx="949.97" cy="551.29" fill="#82ceec"></circle>
        <circle r="5" cx="979.49" cy="684.3" fill="#82ceec"></circle>
        <circle r="5" cx="1122.15" cy="227.72" fill="#82ceec"></circle>
        <circle r="5" cx="1118.52" cy="346.21" fill="#82ceec"></circle>
        <circle r="5" cx="1136.79" cy="531.99" fill="#82ceec"></circle>
        <circle r="5" cx="1264.42" cy="-101.58" fill="#82ceec"></circle>
        <circle r="5" cx="1291.21" cy="84.59" fill="#82ceec"></circle>
        <circle r="5" cx="1272.89" cy="341.4" fill="#82ceec"></circle>
        <circle r="5" cx="1245.95" cy="490.06" fill="#82ceec"></circle>
        <circle r="5" cx="1443.13" cy="-97.22" fill="#82ceec"></circle>
        <circle r="5" cx="1451.87" cy="189.79" fill="#82ceec"></circle>
        <circle r="5" cx="1407.11" cy="406.91" fill="#82ceec"></circle>
        <circle r="5" cx="1391.51" cy="551.46" fill="#82ceec"></circle>
        <circle r="5" cx="1457.42" cy="702.9" fill="#82ceec"></circle>
        <circle r="5" cx="1560.99" cy="-86.18" fill="#82ceec"></circle>
        <circle r="5" cx="1570.36" cy="204.64" fill="#82ceec"></circle>
        <circle r="5" cx="1575.25" cy="409.86" fill="#82ceec"></circle>
        <circle r="5" cx="1596.18" cy="535.71" fill="#82ceec"></circle>
    </g>
    <defs>
        <mask id="SvgjsMask1996">
            <rect width="1440" height="560" fill="#ffffff"></rect>
        </mask>
        <radialGradient id="SvgjsRadialGradient1997">
            <stop stop-color="#ffffff" offset="0.1"></stop>
            <stop stop-color="rgba(4, 157, 217, 1)" offset="0.2"></stop>
            <stop stop-color="rgba(4, 157, 217, 0)" offset="1"></stop>
        </radialGradient>
    </defs>
</svg>